<svg viewBox="0 0 96 96" xmlns="http://www.w3.org/2000/svg" xmlns:xlink="http://www.w3.org/1999/xlink" id="Layer_1" overflow="hidden"><defs></defs><path d="M67.44 96 0.29 96 0.29 39.86 67.44 39.86 67.44 96ZM3.29 93 64.44 93 64.44 42.86 3.29 42.86 3.29 93Z" fill="#033778"/><path d="M55.11 42.86 12.23 42.86 12.23 27.14 55.11 27.14 55.11 42.86ZM15.23 39.86 52.11 39.86 52.11 30.14 15.23 30.14 15.23 39.86Z" fill="#033778"/><path d="M95.71 96 64.43 96 64.43 0 95.71 0 95.71 96ZM67.44 93 92.72 93 92.72 3 67.44 3 67.44 93Z" fill="#033778"/><rect x="32.17" y="7.68" width="3" height="20.96" fill="#033778"/><path d="M51.53 20.75 32.36 20.75 32.36 9.33 51.53 9.33 51.53 20.75ZM35.36 17.75 48.53 17.75 48.53 12.33 35.36 12.33 35.36 17.75Z" fill="#033778"/><rect x="86.35" y="16.79" width="3" height="8.37" fill="#033778"/><rect x="86.35" y="28.06" width="3" height="8.37" fill="#033778"/><rect x="86.35" y="40.21" width="3" height="8.37" fill="#033778"/><rect x="79.46" y="16.79" width="3" height="8.37" fill="#033778"/><rect x="79.46" y="28.06" width="3" height="8.37" fill="#033778"/><rect x="79.46" y="40.21" width="3" height="8.37" fill="#033778"/><rect x="72.39" y="16.79" width="3" height="8.37" fill="#033778"/><rect x="72.39" y="28.06" width="3" height="8.37" fill="#033778"/><rect x="72.39" y="40.21" width="3" height="8.37" fill="#033778"/><rect x="21.53" y="48.59" width="3" height="8.37" fill="#033778"/><rect x="21.53" y="59.85" width="3" height="8.37" fill="#033778"/><rect x="21.53" y="72.01" width="3" height="8.37" fill="#033778"/><rect x="14.63" y="48.59" width="3" height="8.37" fill="#033778"/><rect x="14.63" y="59.85" width="3" height="8.37" fill="#033778"/><rect x="14.63" y="72.01" width="3" height="8.37" fill="#033778"/><rect x="7.56" y="48.59" width="3" height="8.37" fill="#033778"/><rect x="7.56" y="59.85" width="3" height="8.37" fill="#033778"/><rect x="7.56" y="72.01" width="3" height="8.37" fill="#033778"/><rect x="56.64" y="48.59" width="3" height="8.37" fill="#033778"/><rect x="56.64" y="59.85" width="3" height="8.37" fill="#033778"/><rect x="56.64" y="72.01" width="3" height="8.37" fill="#033778"/><rect x="49.75" y="48.59" width="3" height="8.37" fill="#033778"/><rect x="49.75" y="59.85" width="3" height="8.37" fill="#033778"/><rect x="49.75" y="72.01" width="3" height="8.37" fill="#033778"/><rect x="42.67" y="48.59" width="3" height="8.37" fill="#033778"/><rect x="42.67" y="59.85" width="3" height="8.37" fill="#033778"/><rect x="42.67" y="72.01" width="3" height="8.37" fill="#033778"/></svg>