<svg viewBox="0 0 76.53 96" xmlns="http://www.w3.org/2000/svg" xmlns:xlink="http://www.w3.org/1999/xlink" id="Layer_1" overflow="hidden"><defs></defs><line x1="51.56" y1="1.5" x2="75.03" y2="24.61" stroke="#033778" stroke-width="3" stroke-miterlimit="10" fill="none"/><path d="M75.03 24.61 75.03 94.5 1.5 94.5 1.5 1.5 51.56 1.5 51.56 24.61 75.03 24.61Z" stroke="#033778" stroke-width="3" stroke-linejoin="round" fill="none"/><line x1="34.51" y1="37.88" x2="61.32" y2="37.88" stroke="#033778" stroke-width="3" stroke-miterlimit="10" fill="none"/><line x1="34.51" y1="51.67" x2="61.32" y2="51.67" stroke="#033778" stroke-width="3" stroke-miterlimit="10" fill="none"/><line x1="34.51" y1="65.45" x2="61.32" y2="65.45" stroke="#033778" stroke-width="3" stroke-miterlimit="10" fill="none"/><line x1="34.51" y1="79.24" x2="61.32" y2="79.24" stroke="#033778" stroke-width="3" stroke-miterlimit="10" fill="none"/><path d="M8.43 49.23 14.07 54.77 21.92 45.39" stroke="#033778" stroke-width="3" stroke-miterlimit="10" fill="none"/><path d="M8.43 35.78 14.07 41.32 21.92 31.93" stroke="#033778" stroke-width="3" stroke-miterlimit="10" fill="none"/><path d="M8.43 76.8 14.07 82.33 21.92 72.95" stroke="#033778" stroke-width="3" stroke-miterlimit="10" fill="none"/><line x1="10.02" y1="60.72" x2="19.09" y2="69.65" stroke="#033778" stroke-width="3" stroke-miterlimit="10" fill="none"/><line x1="10.26" y1="69.54" x2="18.85" y2="60.82" stroke="#033778" stroke-width="3" stroke-miterlimit="10" fill="none"/><line x1="10.58" y1="12.1" x2="16.71" y2="12.1" stroke="#033778" stroke-width="3" stroke-miterlimit="10" fill="none"/><line x1="20.18" y1="12.1" x2="42.17" y2="12.1" stroke="#033778" stroke-width="3" stroke-miterlimit="10" fill="none"/><line x1="10.58" y1="21.36" x2="16.71" y2="21.36" stroke="#033778" stroke-width="3" stroke-miterlimit="10" fill="none"/><line x1="20.18" y1="21.36" x2="42.17" y2="21.36" stroke="#033778" stroke-width="3" stroke-miterlimit="10" fill="none"/></svg>